<svg xmlns="http://www.w3.org/2000/svg" width="80" height="80" viewBox="0 0 80 80">
  <g fill="none" fill-rule="evenodd">
    <path fill="#9C3" stroke="#FFF" stroke-width="2" d="M40,5 C49.6649831,5 58.4149831,8.91750844 64.7487373,15.2512627 C71.0824916,21.5850169 75,30.3350169 75,40 C75,49.6649831 71.0824916,58.4149831 64.7487373,64.7487373 C58.4149831,71.0824916 49.6649831,75 40,75 C30.3350169,75 21.5850169,71.0824916 15.2512627,64.7487373 C8.91750844,58.4149831 5,49.6649831 5,40 C5,30.3350169 8.91750844,21.5850169 15.2512627,15.2512627 C21.5850169,8.91750844 30.3350169,5 40,5 Z"/>
    <path fill="#FFF" fill-rule="nonzero" d="M54.1428571,23 L50.2857143,23 L50.2857143,18.8214286 C50.2857143,18.2889018 49.8539554,17.8571429 49.3214286,17.8571429 L46.1071429,17.8571429 C45.5746161,17.8571429 45.1428571,18.2889018 45.1428571,18.8214286 L45.1428571,23 L34.8571429,23 L34.8571429,18.8214286 C34.8571429,18.2889018 34.4253839,17.8571429 33.8928571,17.8571429 L30.6785714,17.8571429 C30.1460446,17.8571429 29.7142857,18.2889018 29.7142857,18.8214286 L29.7142857,23 L25.8571429,23 C23.726875,23 22,24.726875 22,26.8571429 L22,55.1428571 C22,57.273125 23.726875,59 25.8571429,59 L54.1428571,59 C56.273125,59 58,57.273125 58,55.1428571 L58,26.8571429 C58,24.726875 56.273125,23 54.1428571,23 Z M53.6607143,55.1428571 L26.3392857,55.1428571 C26.0730056,55.1428571 25.8571429,54.9269944 25.8571429,54.6607143 L25.8571429,30.7142857 L54.1428571,30.7142857 L54.1428571,54.6607143 C54.1428571,54.9269944 53.9269944,55.1428571 53.6607143,55.1428571 Z M49.4139196,39.0191964 L37.978375,50.3631339 C37.6002946,50.7381607 36.9897411,50.73575 36.6146339,50.3576696 L30.5805357,44.2747143 C30.2055089,43.8966339 30.2079196,43.2860804 30.586,42.9109732 L32.4116339,41.1000446 C32.7897143,40.7250179 33.4002679,40.7274286 33.7752946,41.1055893 L37.3193661,44.6783482 L46.2447946,35.8245179 C46.622875,35.4494911 47.2334286,35.4519018 47.6085357,35.8299821 L49.4194643,37.6555357 C49.7944911,38.0336161 49.792,38.6441696 49.4139196,39.0191964 Z"/>
  </g>
</svg>
