<svg xmlns="http://www.w3.org/2000/svg" width="80" height="80" viewBox="0 0 80 80">
  <g fill="none" fill-rule="evenodd">
    <path fill="#F7B500" stroke="#FFF" stroke-width="2" d="M40,5 C49.6649831,5 58.4149831,8.91750844 64.7487373,15.2512627 C71.0824916,21.5850169 75,30.3350169 75,40 C75,49.6649831 71.0824916,58.4149831 64.7487373,64.7487373 C58.4149831,71.0824916 49.6649831,75 40,75 C30.3350169,75 21.5850169,71.0824916 15.2512627,64.7487373 C8.91750844,58.4149831 5,49.6649831 5,40 C5,30.3350169 8.91750844,21.5850169 15.2512627,15.2512627 C21.5850169,8.91750844 30.3350169,5 40,5 Z"/>
    <path fill="#FFF" d="M31.0550951,16.5213414 C32.8852463,16.5213414 34.3688769,18.004972 34.3688769,19.8351232 C34.3688769,20.8836473 33.8818996,21.8184317 33.1217791,22.4256425 L38.7202977,32.525714 C39.6643375,32.0641653 40.7254543,31.8051058 41.8470777,31.8051058 C42.0762931,31.8051058 42.3029814,31.8159249 42.52666,31.8370804 L44.2345016,25.4582115 C42.8551879,25.057418 41.8470777,23.7842609 41.8470777,22.2756472 C41.8470777,20.445496 43.3307084,18.9618654 45.1608595,18.9618654 C46.9910107,18.9618654 48.4746413,20.445496 48.4746413,22.2756472 C48.4746413,23.9463533 47.2382612,25.3282874 45.6305522,25.5563982 L43.8733283,32.0972202 C46.8230161,32.9701983 48.9751204,35.7003479 48.9751204,38.9331484 C48.9751204,39.1591926 48.9645985,39.3827793 48.9440179,39.6034454 L57.0593977,41.0338947 C57.5950747,39.9245688 58.730765,39.1592716 60.0452001,39.1592716 C61.8753512,39.1592716 63.3589819,40.6429022 63.3589819,42.4730534 C63.3589819,44.3032045 61.8753512,45.7868352 60.0452001,45.7868352 C58.2150489,45.7868352 56.7314183,44.3032045 56.7314183,42.4730534 L56.735,42.3663414 L48.6866161,40.9471603 C48.4153194,41.8699543 47.9623463,42.7149869 47.3690775,43.4408773 L56.1300972,52.5120139 C56.6754192,52.1176158 57.3455598,51.8851546 58.0699946,51.8851546 C59.9001457,51.8851546 61.3837764,53.3687853 61.3837764,55.1989364 C61.3837764,57.0290876 59.9001457,58.5127182 58.0699946,58.5127182 C56.2398434,58.5127182 54.7562128,57.0290876 54.7562128,55.1989364 C54.7562128,54.5895793 54.9206862,54.0186369 55.2076612,53.5280812 L46.4049406,44.413793 C45.1693721,45.4424555 43.5804816,46.061191 41.8470777,46.061191 C41.1081616,46.061191 40.3955057,45.9487575 39.7252848,45.7400651 L35.6336508,55.8675693 C36.2068195,56.463274 36.5592213,57.2729215 36.5592213,58.1648768 C36.5592213,59.995028 35.0755906,61.4786586 33.2454395,61.4786586 C31.4152883,61.4786586 29.9316577,59.995028 29.9316577,58.1648768 C29.9316577,56.3347257 31.4152883,54.851095 33.2454395,54.851095 C33.6786002,54.851095 34.0923498,54.9342044 34.471612,55.0853471 L38.464067,45.2088042 C37.4822655,44.6784304 36.6390519,43.9243849 36.0027039,43.0149454 L24.033596,49.1131497 C24.0950091,49.3653468 24.1275636,49.6288434 24.1275636,49.8999435 C24.1275636,51.7300947 22.6439329,53.2137253 20.8137818,53.2137253 C18.9836306,53.2137253 17.5,51.7300947 17.5,49.8999435 C17.5,48.0697924 18.9836306,46.5861618 20.8137818,46.5861618 C21.8824914,46.5861618 22.8330399,47.0920695 23.4390042,47.8774617 L35.3285709,41.8216552 C34.9367406,40.9387213 34.7190351,39.9613588 34.7190351,38.9331484 C34.7190351,36.60916 35.8312108,34.5449342 37.5523505,33.2436826 L31.8970055,23.0410104 C31.6281691,23.1114177 31.3460099,23.148905 31.0550951,23.148905 C29.224944,23.148905 27.7413133,21.6652743 27.7413133,19.8351232 C27.7413133,18.004972 29.224944,16.5213414 31.0550951,16.5213414 Z"/>
  </g>
</svg>
