<svg xmlns="http://www.w3.org/2000/svg" width="80" height="80" viewBox="0 0 80 80">
  <g fill="none" fill-rule="evenodd">
    <path fill="#09C" stroke="#FFF" stroke-width="2" d="M40,5 C49.6649831,5 58.4149831,8.91750844 64.7487373,15.2512627 C71.0824916,21.5850169 75,30.3350169 75,40 C75,49.6649831 71.0824916,58.4149831 64.7487373,64.7487373 C58.4149831,71.0824916 49.6649831,75 40,75 C30.3350169,75 21.5850169,71.0824916 15.2512627,64.7487373 C8.91750844,58.4149831 5,49.6649831 5,40 C5,30.3350169 8.91750844,21.5850169 15.2512627,15.2512627 C21.5850169,8.91750844 30.3350169,5 40,5 Z"/>
    <path fill="#FFF" fill-rule="nonzero" d="M40,39.6875 C45.4345703,39.6875 49.84375,35.2783203 49.84375,29.84375 C49.84375,24.4091797 45.4345703,20 40,20 C34.5654297,20 30.15625,24.4091797 30.15625,29.84375 C30.15625,35.2783203 34.5654297,39.6875 40,39.6875 Z M48.75,41.875 L44.9833984,41.875 C43.4658203,42.5722656 41.7773438,42.96875 40,42.96875 C38.2226562,42.96875 36.5410156,42.5722656 35.0166016,41.875 L31.25,41.875 C26.4169922,41.875 22.5,45.7919922 22.5,50.625 L22.5,51.71875 C22.5,53.5302734 23.9697266,55 25.78125,55 L54.21875,55 C56.0302734,55 57.5,53.5302734 57.5,51.71875 L57.5,50.625 C57.5,45.7919922 53.5830078,41.875 48.75,41.875 Z"/>
  </g>
</svg>
